<svg width="188" height="21" viewBox="0 0 188 21" fill="none" xmlns="http://www.w3.org/2000/svg">
<path fill-rule="evenodd" clip-rule="evenodd" d="M53.2062 18.9902C52.7212 18.9618 52.1152 18.9366 51.5104 18.9528C51.8744 18.9845 52.6002 18.965 53.2062 18.9902Z" fill="#FF508B"/>
<path fill-rule="evenodd" clip-rule="evenodd" d="M56.7165 18.979C56.7165 18.979 57.0783 18.9278 56.9573 18.9311L56.7165 18.979Z" fill="#FF508B"/>
<path fill-rule="evenodd" clip-rule="evenodd" d="M60.9516 18.9069C60.9516 18.9069 59.1348 18.8727 58.2891 18.9368C58.5311 18.9304 60.107 19.0125 60.9516 18.9069Z" fill="#FF508B"/>
<path fill-rule="evenodd" clip-rule="evenodd" d="M61.1946 18.9419C61.5597 19.015 62.5242 18.8647 62.5242 18.8647C62.4021 18.8266 61.4377 18.9768 61.1946 18.9419Z" fill="#FF508B"/>
<path fill-rule="evenodd" clip-rule="evenodd" d="M63.2544 19.011C63.1335 19.0142 63.0125 19.0175 63.0125 19.0175C63.2555 19.0524 63.7416 19.1223 63.8615 19.0776C64.3409 18.8989 62.0447 19.0434 63.6151 18.9184C64.2189 18.8608 62.6451 18.8615 62.7683 18.9411C62.8949 19.145 62.7717 19.0654 63.0125 19.0175C62.7694 18.9825 62.7683 18.9411 63.2544 19.011Z" fill="#FF508B"/>
<path fill-rule="evenodd" clip-rule="evenodd" d="M65.5506 18.8665C63.6162 18.9598 64.0957 18.7811 65.5506 18.8665V18.8665Z" fill="#FF508B"/>
<path fill-rule="evenodd" clip-rule="evenodd" d="M59.8662 19.0604C59.7452 19.0636 59.1415 19.1213 59.1415 19.1213C59.5055 19.153 59.9871 19.0572 59.8662 19.0604Z" fill="#FF508B"/>
<path fill-rule="evenodd" clip-rule="evenodd" d="M65.5506 18.8665C66.1544 18.8089 65.6738 18.9461 65.5506 18.8665V18.8665Z" fill="#FF508B"/>
<path fill-rule="evenodd" clip-rule="evenodd" d="M66.0345 18.8535C66.0345 18.8535 66.3974 18.8438 66.5184 18.8406C67.8491 18.8049 65.7915 18.8186 66.0345 18.8535Z" fill="#FF508B"/>
<path fill-rule="evenodd" clip-rule="evenodd" d="M65.1888 18.9177C65.5517 18.9079 66.2798 18.9713 66.8835 18.9137C66.6405 18.8787 62.4043 18.9094 65.1888 18.9177Z" fill="#FF508B"/>
<path fill-rule="evenodd" clip-rule="evenodd" d="M99.9271 18.7325C99.6852 18.7389 99.4444 18.7869 99.9271 18.7325V18.7325Z" fill="#FF508B"/>
<path fill-rule="evenodd" clip-rule="evenodd" d="M105.486 18.3761C105.728 18.3696 105.849 18.3663 105.849 18.3663C104.396 18.3638 104.881 18.3923 105.486 18.3761Z" fill="#FF508B"/>
<path fill-rule="evenodd" clip-rule="evenodd" d="M62.1657 19.0402C62.1657 19.0402 61.8039 19.0914 61.9249 19.0881C61.9249 19.0881 62.2867 19.037 62.1657 19.0402Z" fill="#FF508B"/>
<path fill-rule="evenodd" clip-rule="evenodd" d="M55.397 19.429C55.519 19.4672 56.1217 19.3681 56.0007 19.3714C55.8786 19.3332 55.2749 19.3908 55.397 19.429Z" fill="#FF508B"/>
<path fill-rule="evenodd" clip-rule="evenodd" d="M63.4997 19.1288C63.6207 19.1256 63.9825 19.0744 63.9825 19.0744C63.8615 19.0776 63.4997 19.1288 63.4997 19.1288Z" fill="#FF508B"/>
<path fill-rule="evenodd" clip-rule="evenodd" d="M57.3314 19.3357C57.2104 19.3389 56.6066 19.3966 56.6066 19.3966C56.8508 19.4729 57.3314 19.3357 57.3314 19.3357Z" fill="#FF508B"/>
<path fill-rule="evenodd" clip-rule="evenodd" d="M81.522 18.5626C81.6429 18.5594 81.3999 18.5244 81.522 18.5626V18.5626Z" fill="#FF508B"/>
<path fill-rule="evenodd" clip-rule="evenodd" d="M57.9384 19.4023C58.0594 19.3991 58.4212 19.3479 58.4212 19.3479C58.2991 19.3097 57.8163 19.3641 57.9384 19.4023Z" fill="#FF508B"/>
<path fill-rule="evenodd" clip-rule="evenodd" d="M83.2155 18.5172C83.0946 18.5204 83.2166 18.5586 83.2155 18.5172V18.5172Z" fill="#FF508B"/>
<path fill-rule="evenodd" clip-rule="evenodd" d="M83.9413 18.4977C83.8204 18.501 83.9425 18.5392 83.9413 18.4977V18.4977Z" fill="#FF508B"/>
<path fill-rule="evenodd" clip-rule="evenodd" d="M59.0272 19.3731C59.0272 19.3731 59.3901 19.3634 59.511 19.3601C60.7207 19.3277 58.7841 19.3382 59.0272 19.3731Z" fill="#FF508B"/>
<path fill-rule="evenodd" clip-rule="evenodd" d="M63.0192 19.2661C63.1401 19.2628 63.5019 19.2117 63.5019 19.2117C63.3798 19.1735 62.8971 19.2279 63.0192 19.2661Z" fill="#FF508B"/>
<path fill-rule="evenodd" clip-rule="evenodd" d="M63.8659 19.2434C63.9891 19.323 64.4719 19.2686 64.4708 19.2271C64.4697 19.1857 63.7428 19.1637 63.8659 19.2434Z" fill="#FF508B"/>
<path fill-rule="evenodd" clip-rule="evenodd" d="M65.6794 19.1533C65.4374 19.1598 65.5573 19.1151 65.6794 19.1533V19.1533Z" fill="#FF508B"/>
<path fill-rule="evenodd" clip-rule="evenodd" d="M69.1864 19.0178C68.9433 18.9828 67.9789 19.1331 67.8568 19.0949C68.222 19.168 69.1864 19.0178 69.1864 19.0178Z" fill="#FF508B"/>
<path fill-rule="evenodd" clip-rule="evenodd" d="M86.2398 18.4361C86.1188 18.4394 85.5151 18.497 85.5151 18.497C85.8791 18.5287 86.2398 18.4361 86.2398 18.4361Z" fill="#FF508B"/>
<path fill-rule="evenodd" clip-rule="evenodd" d="M60.3589 19.3789C60.3589 19.3789 60.7218 19.3691 60.8428 19.3659C62.0514 19.292 60.1159 19.3439 60.3589 19.3789Z" fill="#FF508B"/>
<path fill-rule="evenodd" clip-rule="evenodd" d="M65.0756 19.2109C64.9547 19.2142 64.9536 19.1727 65.0756 19.2109V19.2109Z" fill="#FF508B"/>
<path fill-rule="evenodd" clip-rule="evenodd" d="M89.87 18.3802C89.87 18.3802 90.2318 18.3291 90.1108 18.3323C90.1108 18.3323 89.7479 18.342 89.87 18.3802Z" fill="#FF508B"/>
<path fill-rule="evenodd" clip-rule="evenodd" d="M61.5697 19.3879C61.5697 19.3879 62.0536 19.3749 62.1746 19.3716C63.5041 19.2945 61.3267 19.3529 61.5697 19.3879Z" fill="#FF508B"/>
<path fill-rule="evenodd" clip-rule="evenodd" d="M93.0141 18.2545C92.892 18.2163 92.2894 18.3153 92.4103 18.3121C92.5324 18.3503 93.0152 18.2959 93.0141 18.2545Z" fill="#FF508B"/>
<path fill-rule="evenodd" clip-rule="evenodd" d="M62.9004 19.3522C62.9004 19.3522 63.3843 19.3392 63.5053 19.336C65.3198 19.2873 62.6574 19.3172 62.9004 19.3522Z" fill="#FF508B"/>
<path fill-rule="evenodd" clip-rule="evenodd" d="M64.2322 19.3579C64.5973 19.4311 65.5617 19.2808 65.5617 19.2808C65.3187 19.2459 64.3543 19.3961 64.2322 19.3579Z" fill="#FF508B"/>
<path fill-rule="evenodd" clip-rule="evenodd" d="M65.6849 19.3604C66.0501 19.4336 67.0145 19.2833 67.0145 19.2833C66.7703 19.2069 65.9269 19.3539 65.6849 19.3604Z" fill="#FF508B"/>
<path fill-rule="evenodd" clip-rule="evenodd" d="M76.9329 18.9759C77.298 19.049 78.2624 18.8988 78.2624 18.8988C78.1393 18.8192 77.1748 18.9694 76.9329 18.9759Z" fill="#FF508B"/>
<path fill-rule="evenodd" clip-rule="evenodd" d="M67.2575 19.3183C67.6227 19.3914 68.5871 19.2412 68.5871 19.2412C68.344 19.2062 67.3796 19.3565 67.2575 19.3183Z" fill="#FF508B"/>
<path fill-rule="evenodd" clip-rule="evenodd" d="M68.7103 19.3208C68.8313 19.3175 69.3151 19.3046 69.5571 19.2981C71.8544 19.195 68.5882 19.2826 68.7103 19.3208Z" fill="#FF508B"/>
<path fill-rule="evenodd" clip-rule="evenodd" d="M70.6458 19.2689C71.0109 19.342 71.9754 19.1918 71.9754 19.1918C71.7323 19.1568 70.7679 19.3071 70.6458 19.2689Z" fill="#FF508B"/>
<path fill-rule="evenodd" clip-rule="evenodd" d="M72.3405 19.2649C72.4626 19.3031 73.5502 19.2324 73.5502 19.2324C74.6378 19.1618 72.0974 19.2299 72.3405 19.2649Z" fill="#FF508B"/>
<path fill-rule="evenodd" clip-rule="evenodd" d="M74.397 19.2097C74.397 19.2097 74.8808 19.1968 75.0018 19.1935C76.8152 19.1034 74.1539 19.1748 74.397 19.2097Z" fill="#FF508B"/>
<path fill-rule="evenodd" clip-rule="evenodd" d="M73.1884 19.2836C73.3105 19.3218 73.9142 19.2641 73.7921 19.226C73.6711 19.2292 73.0674 19.2869 73.1884 19.2836Z" fill="#FF508B"/>
<path fill-rule="evenodd" clip-rule="evenodd" d="M76.2126 19.2025C76.2126 19.2025 76.6965 19.1895 76.8175 19.1863C78.5099 19.0995 75.9696 19.1676 76.2126 19.2025Z" fill="#FF508B"/>
<path fill-rule="evenodd" clip-rule="evenodd" d="M74.6411 19.2861C74.7621 19.2829 75.2449 19.2285 75.1239 19.2317C75.0029 19.235 74.64 19.2447 74.6411 19.2861Z" fill="#FF508B"/>
<path fill-rule="evenodd" clip-rule="evenodd" d="M77.7852 19.1603C78.1504 19.2335 79.1148 19.0832 79.1148 19.0832C78.8717 19.0483 77.9073 19.1985 77.7852 19.1603Z" fill="#FF508B"/>
<path fill-rule="evenodd" clip-rule="evenodd" d="M79.6009 19.1531C79.7219 19.1499 80.9315 19.1174 80.9315 19.1174C82.1401 19.0436 79.3578 19.1182 79.6009 19.1531Z" fill="#FF508B"/>
<path fill-rule="evenodd" clip-rule="evenodd" d="M81.6574 19.098C81.7783 19.0947 82.988 19.0623 82.988 19.0623C84.1966 18.9884 81.5353 19.0598 81.6574 19.098Z" fill="#FF508B"/>
<path fill-rule="evenodd" clip-rule="evenodd" d="M83.8359 19.081C84.3198 19.068 85.6494 18.9909 85.5273 18.9527C85.2842 18.9178 84.3198 19.068 83.8359 19.081Z" fill="#FF508B"/>
<path fill-rule="evenodd" clip-rule="evenodd" d="M85.4097 19.0803C85.4097 19.0803 85.7714 19.0291 85.6505 19.0324C85.6505 19.0324 85.2887 19.0835 85.4097 19.0803Z" fill="#FF508B"/>
<path fill-rule="evenodd" clip-rule="evenodd" d="M89.0387 18.983C89.1608 19.0212 90.7323 18.9376 90.8533 18.9343C92.9075 18.7963 88.6736 18.9098 89.0387 18.983Z" fill="#FF508B"/>
<path fill-rule="evenodd" clip-rule="evenodd" d="M88.0721 19.0503C88.1942 19.0885 88.7968 18.9895 88.6758 18.9927C88.5538 18.9545 88.071 19.0089 88.0721 19.0503Z" fill="#FF508B"/>
<path fill-rule="evenodd" clip-rule="evenodd" d="M91.942 18.9051C92.0641 18.9433 93.6356 18.8597 93.7566 18.8565C95.8119 18.7599 91.5769 18.832 91.942 18.9051Z" fill="#FF508B"/>
<path fill-rule="evenodd" clip-rule="evenodd" d="M86.7414 19.086C86.6205 19.0893 86.2587 19.1404 86.2587 19.1404C86.3796 19.1372 86.8624 19.0828 86.7414 19.086Z" fill="#FF508B"/>
<path fill-rule="evenodd" clip-rule="evenodd" d="M87.4672 19.0666C87.3463 19.0698 86.9845 19.121 86.9845 19.121C87.1054 19.1177 87.5882 19.0633 87.4672 19.0666Z" fill="#FF508B"/>
<path fill-rule="evenodd" clip-rule="evenodd" d="M93.2738 18.9109C91.0986 19.0521 94.7243 18.8305 94.4824 18.837C93.3925 18.8248 93.9996 18.8914 93.2738 18.9109Z" fill="#FF508B"/>
<path fill-rule="evenodd" clip-rule="evenodd" d="M87.3485 19.1527C87.3474 19.1112 88.0765 19.2161 87.9533 19.1365C87.9533 19.1365 87.2264 19.1145 87.3485 19.1527Z" fill="#FF508B"/>
<path fill-rule="evenodd" clip-rule="evenodd" d="M95.5733 18.8907C95.5733 18.8907 97.0272 18.9346 97.9927 18.8258C97.025 18.8517 96.1748 18.7501 95.5733 18.8907Z" fill="#FF508B"/>
<path fill-rule="evenodd" clip-rule="evenodd" d="M86.5028 19.2168C86.6249 19.255 87.2275 19.1559 87.1066 19.1592C86.9856 19.1624 86.3819 19.2201 86.5028 19.2168Z" fill="#FF508B"/>
<path fill-rule="evenodd" clip-rule="evenodd" d="M109.364 18.5209C107.065 18.5825 104.163 18.7018 101.381 18.7764C100.292 18.8056 99.0803 18.7552 97.9938 18.8672C101.623 18.7699 107.434 18.7799 111.424 18.59C113.115 18.4617 109.485 18.5176 109.364 18.5209Z" fill="#FF508B"/>
<path fill-rule="evenodd" clip-rule="evenodd" d="M104.767 18.6441C104.888 18.6409 104.766 18.6027 104.767 18.6441V18.6441Z" fill="#FF508B"/>
<path fill-rule="evenodd" clip-rule="evenodd" d="M92.9153 19.0863C93.2805 19.1594 93.64 19.0254 93.64 19.0254C93.518 18.9872 92.9153 19.0863 92.9153 19.0863Z" fill="#FF508B"/>
<path fill-rule="evenodd" clip-rule="evenodd" d="M95.0928 19.0279C95.2137 19.0247 96.4234 18.9922 96.4234 18.9922C97.753 18.9151 94.9707 18.9897 95.0928 19.0279Z" fill="#FF508B"/>
<path fill-rule="evenodd" clip-rule="evenodd" d="M97.9972 18.9915C97.8751 18.9533 98.1181 18.9883 97.9972 18.9915V18.9915Z" fill="#FF508B"/>
<path fill-rule="evenodd" clip-rule="evenodd" d="M99.2057 18.9176C99.2057 18.9176 99.5687 18.9079 99.6896 18.9047C100.899 18.8722 98.9627 18.8827 99.2057 18.9176Z" fill="#FF508B"/>
<path fill-rule="evenodd" clip-rule="evenodd" d="M100.174 18.8917C100.296 18.9299 100.898 18.8308 100.777 18.834C100.656 18.8373 100.174 18.8917 100.174 18.8917Z" fill="#FF508B"/>
<path fill-rule="evenodd" clip-rule="evenodd" d="M101.868 18.8877C102.233 18.9608 102.593 18.8268 102.593 18.8268C102.471 18.7886 101.868 18.8877 101.868 18.8877Z" fill="#FF508B"/>
<path fill-rule="evenodd" clip-rule="evenodd" d="M103.078 18.8553C103.443 18.9284 103.803 18.7944 103.803 18.7944C103.681 18.7562 103.078 18.8553 103.078 18.8553Z" fill="#FF508B"/>
<path fill-rule="evenodd" clip-rule="evenodd" d="M104.407 18.7782C104.407 18.7782 104.769 18.727 104.648 18.7302C104.648 18.7302 104.286 18.7814 104.407 18.7782Z" fill="#FF508B"/>
<path fill-rule="evenodd" clip-rule="evenodd" d="M105.739 18.7839C105.86 18.7807 106.222 18.7295 106.222 18.7295C106.101 18.7327 105.617 18.7457 105.739 18.7839Z" fill="#FF508B"/>
<path fill-rule="evenodd" clip-rule="evenodd" d="M114.446 18.4261C114.203 18.3911 112.997 18.5893 112.632 18.5161C113.119 18.6275 114.325 18.4293 114.446 18.4261Z" fill="#FF508B"/>
<path fill-rule="evenodd" clip-rule="evenodd" d="M115.173 18.448C115.295 18.4862 116.625 18.4505 116.504 18.4538C117.956 18.4148 114.928 18.3716 115.173 18.448Z" fill="#FF508B"/>
<path fill-rule="evenodd" clip-rule="evenodd" d="M118.923 18.3475C118.923 18.3475 119.284 18.2963 119.164 18.2995C119.162 18.2581 118.801 18.3093 118.923 18.3475Z" fill="#FF508B"/>
<path fill-rule="evenodd" clip-rule="evenodd" d="M108.401 18.7125C108.523 18.7507 109.61 18.6801 109.61 18.6801C110.819 18.6062 108.158 18.6776 108.401 18.7125Z" fill="#FF508B"/>
<path fill-rule="evenodd" clip-rule="evenodd" d="M121.463 18.2793C121.463 18.2793 121.825 18.2282 121.704 18.2314C121.704 18.2314 121.342 18.2826 121.463 18.2793Z" fill="#FF508B"/>
<path fill-rule="evenodd" clip-rule="evenodd" d="M122.552 18.2502C122.552 18.2502 122.914 18.199 122.793 18.2022C122.793 18.2022 122.43 18.212 122.552 18.2502Z" fill="#FF508B"/>
<path fill-rule="evenodd" clip-rule="evenodd" d="M111.063 18.6826C111.547 18.6696 112.876 18.5925 112.754 18.5543C112.632 18.5161 111.547 18.6696 111.063 18.6826Z" fill="#FF508B"/>
<path fill-rule="evenodd" clip-rule="evenodd" d="M114.207 18.5568C114.329 18.595 114.932 18.4959 114.811 18.4992C114.69 18.5024 114.086 18.5601 114.207 18.5568Z" fill="#FF508B"/>
<path fill-rule="evenodd" clip-rule="evenodd" d="M120.979 18.2923C120.614 18.2192 118.078 18.453 118.077 18.4116C118.443 18.5262 120.857 18.2541 120.979 18.2923Z" fill="#FF508B"/>
<path fill-rule="evenodd" clip-rule="evenodd" d="M114.934 18.5788C115.299 18.6519 115.659 18.5179 115.659 18.5179C115.537 18.4797 114.934 18.5788 114.934 18.5788Z" fill="#FF508B"/>
<path fill-rule="evenodd" clip-rule="evenodd" d="M127.874 18.1074C127.753 18.1107 127.997 18.1456 127.874 18.1074V18.1074Z" fill="#FF508B"/>
<path fill-rule="evenodd" clip-rule="evenodd" d="M117.232 18.5172C117.353 18.5139 118.563 18.4815 118.563 18.4815C119.772 18.4076 116.989 18.4822 117.232 18.5172Z" fill="#FF508B"/>
<path fill-rule="evenodd" clip-rule="evenodd" d="M120.015 18.4426C119.773 18.4491 119.893 18.4044 120.015 18.4426V18.4426Z" fill="#FF508B"/>
<path fill-rule="evenodd" clip-rule="evenodd" d="M131.747 18.0451C131.625 18.0069 131.868 18.0418 131.747 18.0451V18.0451Z" fill="#FF508B"/>
<path fill-rule="evenodd" clip-rule="evenodd" d="M120.862 18.4199C120.499 18.4296 120.257 18.4361 120.015 18.4426C120.864 18.5027 122.796 18.3265 120.862 18.4199Z" fill="#FF508B"/>
<path fill-rule="evenodd" clip-rule="evenodd" d="M135.135 17.9957C135.134 17.9542 135.256 17.9924 135.135 17.9957V17.9957Z" fill="#FF508B"/>
<path fill-rule="evenodd" clip-rule="evenodd" d="M129.21 18.2375C129.21 18.2375 129.571 18.1863 129.45 18.1895L129.21 18.2375Z" fill="#FF508B"/>
<path fill-rule="evenodd" clip-rule="evenodd" d="M134.412 18.1394C134.654 18.1329 135.257 18.0338 135.378 18.0306C135.257 18.0338 136.469 18.0843 136.711 18.0778C138.041 18.0421 142.397 17.9668 143.727 17.8896C144.573 17.8255 141.91 17.8554 141.668 17.8619C141.426 17.8684 141.065 17.9196 140.823 17.9261C140.581 17.9325 140.337 17.8562 140.216 17.8594C140.337 17.8562 140.097 17.9455 139.976 17.9488C139.371 17.965 138.402 17.9495 137.434 17.9755C136.951 17.9884 136.226 18.0493 135.983 18.0144C135.983 18.0144 136.222 17.925 135.86 17.9348C135.134 17.9542 134.773 18.0468 133.804 18.0313C133.564 18.1207 134.17 18.1459 134.412 18.1394Z" fill="#FF508B"/>
<path fill-rule="evenodd" clip-rule="evenodd" d="M140.096 17.9041C140.096 17.9041 141.79 17.9001 141.183 17.8335C140.576 17.7668 140.095 17.8627 140.096 17.9041Z" fill="#FF508B"/>
<path fill-rule="evenodd" clip-rule="evenodd" d="M139.007 17.9333C139.007 17.9333 138.645 17.9844 138.766 17.9812C138.766 17.9812 139.128 17.93 139.007 17.9333Z" fill="#FF508B"/>
<path fill-rule="evenodd" clip-rule="evenodd" d="M131.147 18.2684C131.268 18.2652 131.146 18.227 131.147 18.2684V18.2684Z" fill="#FF508B"/>
<path fill-rule="evenodd" clip-rule="evenodd" d="M149.411 17.6957C150.015 17.6381 149.536 17.8168 149.411 17.6957V17.6957Z" fill="#FF508B"/>
<path fill-rule="evenodd" clip-rule="evenodd" d="M144.455 17.953C144.455 17.953 144.939 17.9401 145.06 17.9368C146.873 17.8467 144.212 17.9181 144.455 17.953Z" fill="#FF508B"/>
<path fill-rule="evenodd" clip-rule="evenodd" d="M151.106 17.6918C151.108 17.7746 150.5 17.6666 151.106 17.6918V17.6918Z" fill="#FF508B"/>
<path fill-rule="evenodd" clip-rule="evenodd" d="M156.673 17.6254C156.552 17.6287 156.795 17.6636 156.673 17.6254V17.6254Z" fill="#FF508B"/>
<path fill-rule="evenodd" clip-rule="evenodd" d="M176.94 15.0089C176.095 15.073 177.428 15.1202 176.944 15.1332C175.371 15.1754 174.035 15.0039 172.34 15.0079C170.162 15.0248 166.535 15.205 163.386 15.1651C161.692 15.169 161.204 15.0577 161.932 15.1211C159.144 14.9886 162.656 15.0188 165.197 14.9921C168.707 14.9395 175.726 14.8756 177.66 14.7409C178.143 14.7279 177.658 14.6994 177.415 14.6645C175.477 14.5921 172.334 14.7593 169.551 14.8339C160.114 15.0455 148.013 15.2041 138.453 15.3361C138.211 15.3426 135.306 15.3376 135.908 15.2385C136.39 15.1427 146.195 15.1285 146.68 15.157C150.31 15.1011 153.457 15.0582 156.604 15.0567C159.871 15.0105 163.139 14.9644 167.252 14.8541C169.913 14.7827 164.226 14.8938 164.706 14.7151L165.553 14.6924C163.614 14.62 155.265 14.7609 151.03 14.833C140.867 15.0641 128.64 15.0603 116.782 15.2539C114.24 15.2805 111.7 15.3487 108.312 15.3981C105.649 15.428 100.566 15.4814 100.806 15.392C101.167 15.2994 108.428 15.2291 108.913 15.2576C111.334 15.2341 113.274 15.3479 115.932 15.1523C110.243 15.1804 103.708 15.2727 97.0537 15.4097C95.3601 15.4551 93.6655 15.4591 92.0929 15.5013C90.3993 15.5467 88.7057 15.5921 87.132 15.5929C85.4384 15.6383 83.8658 15.6804 82.1711 15.6844C80.4775 15.7298 78.9049 15.772 77.3312 15.7727C74.4268 15.8092 70.5547 15.8715 66.5616 15.9371C66.0777 15.9501 65.5938 15.9631 65.1088 15.9346C64.625 15.9476 64.1411 15.9606 63.5362 15.9768C62.5685 16.0028 61.4786 15.9905 60.5109 16.0165C59.5431 16.0424 58.5754 16.0684 57.6065 16.0529C57.1226 16.0659 56.6387 16.0788 56.1549 16.0918C55.671 16.1048 55.1871 16.1178 54.7032 16.1307C51.1951 16.2248 47.5649 16.2807 47.2053 16.4147C46.9656 16.5041 48.0799 17.4278 48.2009 17.4245C48.3229 17.4627 48.809 17.5326 48.9311 17.5708C49.294 17.5611 50.5048 17.5701 50.6258 17.5668C50.7468 17.5636 50.8677 17.5603 50.9887 17.5571C50.9898 17.5985 50.87 17.6432 50.8711 17.6846C49.9033 17.7106 48.4528 17.7909 48.6958 17.8259C48.94 17.9023 49.9089 17.9177 50.8766 17.8918C50.88 18.0161 50.7623 18.1436 50.8855 18.2232C48.3441 18.2499 49.4361 18.345 50.89 18.389C51.1386 18.6311 51.628 18.8252 52.598 18.8821L52.5991 18.9236L53.3249 18.9041C54.1728 18.9228 54.5335 18.8302 54.5346 18.8717L53.3249 18.9041C54.1717 18.8814 53.568 18.9391 53.2051 18.9488C53.5691 18.9805 53.932 18.9708 54.1739 18.9643C54.4159 18.9578 54.053 18.9675 53.932 18.9708C54.4159 18.9578 55.0196 18.9001 55.5035 18.8872C56.3503 18.8645 55.5057 18.97 56.5944 18.9408C56.9573 18.9311 57.3202 18.9214 57.5622 18.9149C57.4412 18.9181 57.5633 18.9563 58.1681 18.9401C58.1681 18.9401 58.0472 18.9433 58.0461 18.9019C62.765 18.8168 67.3641 18.7764 72.0819 18.6499C71.9609 18.6532 71.8411 18.6978 71.962 18.6946L72.204 18.6881C73.7766 18.6459 75.1072 18.6102 76.5589 18.5713C76.9229 18.603 77.0439 18.5998 77.1659 18.638C77.045 18.6412 79.1015 18.5861 81.1579 18.5309C82.1257 18.505 83.2144 18.4758 84.0612 18.4531C84.908 18.4304 85.3919 18.4174 85.3919 18.4174L85.5106 18.3313C87.0832 18.2891 85.9967 18.4012 87.4484 18.3622C88.0499 18.2217 89.8689 18.3388 90.3505 18.243C90.3505 18.243 91.0763 18.2235 90.9565 18.2682C91.1973 18.2202 91.6823 18.2487 92.1662 18.2357C92.2871 18.2325 92.0452 18.239 91.9231 18.2008L93.0119 18.1716C93.3759 18.2033 93.4968 18.2 93.135 18.2512C93.498 18.2415 94.2238 18.222 95.0717 18.2407C95.0717 18.2407 95.4357 18.2724 95.5567 18.2692L95.5555 18.2278C97.1293 18.227 99.3067 18.1686 101.485 18.1517C95.9207 18.3009 90.3561 18.4501 84.5484 18.5644C80.5564 18.6714 74.7465 18.7028 70.8755 18.8066C69.3029 18.8488 68.212 18.7951 67.4884 18.8975C67.7303 18.891 67.4906 18.9803 67.0056 18.9519C67.6127 19.0185 68.3374 18.9576 69.3062 18.9731C69.5471 18.9252 69.3051 18.9317 69.3062 18.9731C69.0665 19.0625 70.8777 18.8895 70.638 18.9789C70.7579 18.9342 69.9133 19.0397 69.9133 19.0397C70.8822 19.0552 71.729 19.0325 72.9364 18.9172C72.0908 18.9814 71.7256 18.9082 73.0574 18.914C73.2994 18.9075 73.9042 18.8913 73.9042 18.8913C73.9042 18.8913 73.6634 18.9392 74.0274 18.9709C74.3903 18.9612 74.7521 18.91 75.236 18.897C75.115 18.9003 75.479 18.932 75.7221 18.9669C75.843 18.9637 76.3269 18.9507 76.4479 18.9474C76.8097 18.8963 76.0828 18.8743 76.5655 18.8199C76.5655 18.8199 76.9296 18.8516 77.1726 18.8865C78.0205 18.9053 78.7441 18.8029 78.9871 18.8379C78.9871 18.8379 78.5055 18.9337 78.8695 18.9654C80.2013 18.9712 81.4077 18.8144 82.7405 18.8616L82.7394 18.8202C81.6474 18.7251 80.6841 18.9168 82.7394 18.8202C82.9814 18.8137 83.1034 18.8519 82.7405 18.8616C83.5895 18.9218 86.8535 18.7513 88.0632 18.7189C87.8213 18.7254 88.0643 18.7603 88.1864 18.7985C88.4283 18.792 88.7912 18.7823 89.274 18.7279C89.1542 18.7726 88.91 18.6962 89.1519 18.6897C89.6358 18.6767 89.395 18.7246 89.759 18.7563C90.365 18.7816 94.1139 18.6396 95.5667 18.6421C95.4457 18.6453 96.4123 18.5779 96.2947 18.7055C96.2958 18.7469 95.2049 18.6932 95.4468 18.6867C94.8419 18.703 91.3338 18.797 90.9709 18.8068C90.729 18.8133 90.8511 18.8514 90.2462 18.8677C90.0043 18.8742 89.8822 18.836 89.6391 18.801C88.9133 18.8205 87.5838 18.8976 86.495 18.9268C86.0112 18.9398 85.6483 18.9495 85.0434 18.9657C84.8015 18.9722 84.6794 18.934 84.4363 18.8991C84.0734 18.9088 83.4697 18.9665 82.9858 18.9794C79.5987 19.0703 74.9985 19.0692 71.3683 19.1251C69.0699 19.1867 67.1343 19.2386 65.6805 19.1947C65.6816 19.2361 65.3187 19.2459 65.0767 19.2524C67.6182 19.2257 72.2184 19.2267 75.2426 19.1456C78.3879 19.0613 82.624 19.0306 87.9478 18.9293C88.7946 18.9066 88.6736 18.9098 87.3441 18.9869C84.9258 19.0933 88.0721 19.0503 88.6758 18.9927C88.9178 18.9862 88.7946 18.9066 89.1575 18.8969C90.487 18.8197 92.5458 18.8475 94.3603 18.7988C95.2071 18.7761 93.6334 18.7768 95.2071 18.7761C95.934 18.7981 95.6943 18.8874 95.2104 18.9004C95.5733 18.8907 97.51 18.8802 97.9927 18.8258C98.2347 18.8193 97.8695 18.7462 98.1115 18.7397C98.5953 18.7267 102.103 18.6326 99.4432 18.7454C98.4755 18.7714 98.5976 18.8096 99.8073 18.7771C100.412 18.7609 100.17 18.7674 99.9293 18.8153C100.05 18.8121 100.291 18.7642 100.775 18.7512C100.775 18.7512 100.893 18.6236 101.62 18.6456L101.38 18.735C101.622 18.7285 105.612 18.5386 102.832 18.696C102.59 18.7025 102.228 18.7537 102.349 18.7504C104.167 18.8261 106.339 18.5605 108.034 18.598C109.487 18.6005 107.425 18.4485 108.034 18.598C108.642 18.7061 110.332 18.4949 111.42 18.4657C111.178 18.4722 111.421 18.5072 111.544 18.5453C112.27 18.5673 112.873 18.4682 113.599 18.4488C112.632 18.5161 113.96 18.3562 114.203 18.3911C114.203 18.3911 113.842 18.4837 113.963 18.4805C114.084 18.4772 114.928 18.3716 115.051 18.4098C115.051 18.4098 114.69 18.5024 114.811 18.4992C115.416 18.483 116.142 18.4635 116.867 18.444C122.312 18.3395 128.119 18.1838 134.411 18.098C133.564 18.1207 132.358 18.2774 131.51 18.2587C131.268 18.2652 131.266 18.1823 131.024 18.1888C129.935 18.218 128.849 18.3301 127.759 18.3178C127.396 18.3276 126.789 18.2609 126.306 18.3153C125.701 18.3315 125.339 18.3413 124.976 18.351C124.25 18.3705 123.887 18.3802 122.435 18.4191C121.951 18.4321 121.95 18.3907 121.347 18.4483C121.226 18.4516 124.977 18.3924 125.703 18.373C126.186 18.36 126.671 18.3884 126.913 18.382C126.792 18.3852 126.31 18.4396 126.431 18.4364C126.673 18.4299 127.277 18.4137 127.76 18.3593C127.639 18.3625 127.517 18.3243 127.396 18.3276C128 18.2699 129.089 18.2407 130.057 18.2562L129.939 18.3423C130.302 18.3326 130.057 18.2562 130.42 18.2465C130.662 18.24 130.906 18.3163 131.148 18.3099C132.116 18.2839 132.598 18.1881 132.963 18.2612C132.841 18.223 132.48 18.3156 132.48 18.3156C133.207 18.3376 133.327 18.2929 133.81 18.2385C133.563 18.0793 133.93 18.1938 134.894 18.0436C134.893 18.0021 136.467 18.0014 137.192 17.9819C136.83 17.9917 136.105 18.0526 136.105 18.0526C136.59 18.081 137.8 18.0486 138.403 17.9909C137.798 18.0072 137.071 17.9852 138.281 17.9527C139.612 17.9171 141.186 17.9163 142.758 17.8742C144.089 17.8385 142.518 17.9635 142.277 17.97C143.245 17.9855 143.484 17.8547 144.816 17.8604C146.025 17.828 144.455 17.953 144.334 17.9563C145.424 17.9685 144.818 17.9433 146.269 17.8629C147.961 17.7761 149.415 17.82 147.358 17.8752C144.696 17.9051 148.692 17.9638 149.416 17.8615L149.415 17.82C148.808 17.7534 148.206 17.8939 149.415 17.82C149.658 17.855 150.14 17.7591 150.262 17.7973C150.262 17.7973 149.901 17.8899 150.022 17.8867C150.506 17.8737 150.383 17.7941 151.111 17.8575C151.232 17.8542 152.804 17.8121 153.408 17.7544C153.045 17.7642 152.442 17.8632 152.563 17.86C153.533 17.9169 154.014 17.7796 154.982 17.7537C155.828 17.731 156.797 17.7465 157.645 17.7652C157.887 17.7587 161.396 17.7061 161.275 17.7093C160.311 17.8595 155.711 17.8585 154.742 17.843C152.202 17.9112 151.113 17.9404 148.329 17.9735C147.483 17.9962 146.029 17.9523 145.909 17.997C145.668 18.0449 148.089 18.0214 148.331 18.015C153.775 17.9104 159.946 17.7864 165.514 17.7615C167.329 17.7543 167.452 17.7925 168.41 17.4351C168.53 17.3904 168.771 17.3425 169.011 17.2531C170.343 17.2589 171.674 17.2646 172.885 17.2736C172.886 17.315 172.402 17.328 171.919 17.341C172.16 17.3345 172.644 17.3215 172.887 17.3565C172.402 17.328 173.734 17.3338 173.37 17.3021C174.941 17.177 176.88 17.2908 178.332 17.2519C178.451 17.1658 182.162 15.6152 182.28 15.4876C182.764 15.4747 183.128 15.5064 183.249 15.5031C183.126 15.4649 182.279 15.4462 181.795 15.4592L181.675 15.5039C181.554 15.5071 181.433 15.5103 181.312 15.5136C181.312 15.5136 181.07 15.5201 180.949 15.5233C180.828 15.5266 180.707 15.5298 180.464 15.4949C180.463 15.4534 181.431 15.4275 182.158 15.4495C181.431 15.4275 180.704 15.4055 180.342 15.4567C180.221 15.4599 180.1 15.4632 180.1 15.4632C182.034 15.3698 183.97 15.3179 185.782 15.1864C183.599 15.0376 179.477 14.8165 176.94 15.0089ZM50.8733 17.7675C50.6314 17.774 50.2685 17.7837 49.9055 17.7934C50.2696 17.8251 50.5104 17.7772 50.8733 17.7675C50.9943 17.7643 50.9943 17.7643 50.8733 17.7675ZM90.6457 15.7059C90.5236 15.6677 91.6101 15.5557 91.8531 15.5906C91.9752 15.6288 90.7677 15.7441 90.6457 15.7059ZM92.0973 15.667C92.2194 15.7052 91.9752 15.6288 92.0973 15.667V15.667ZM92.9441 15.6443C93.1871 15.6792 98.866 15.2782 99.5963 15.4245C99.2312 15.3513 93.7964 15.8288 92.9441 15.6443ZM67.7303 18.891C67.6093 18.8942 68.2131 18.8366 68.334 18.8333L67.7303 18.891ZM69.1819 18.8521C69.304 18.8902 69.061 18.8553 69.1819 18.8521V18.8521ZM71.6058 18.9529C71.3616 18.8765 70.7601 19.017 71.6058 18.9529C71.6091 19.0772 72.2095 18.8953 71.6058 18.9529ZM75.9629 18.919C75.9629 18.919 75.6 18.9287 75.479 18.932C75.236 18.897 77.2925 18.8419 75.9629 18.919ZM79.1048 18.7104C78.9838 18.7136 79.4666 18.6592 79.5876 18.6559C79.7085 18.6527 79.2258 18.7071 79.1048 18.7104ZM80.9193 18.6617C80.9193 18.6617 81.1602 18.6138 81.2822 18.652C81.2822 18.652 81.0414 18.6999 80.9193 18.6617ZM82.1301 18.6707C82.0092 18.6739 82.4919 18.6195 82.6129 18.6163C82.614 18.6577 82.2511 18.6674 82.1301 18.6707ZM83.5862 18.7975C83.4652 18.8007 83.827 18.7496 83.827 18.7496C83.9491 18.7878 83.5862 18.7975 83.5862 18.7975ZM86.0056 18.7326C86.0056 18.7326 86.3663 18.64 86.4884 18.6782C86.7314 18.7131 86.0056 18.7326 86.0056 18.7326ZM91.3283 18.5899C91.3283 18.5899 91.568 18.5005 92.053 18.529C92.5391 18.5989 91.3294 18.6313 91.3283 18.5899ZM94.1072 18.391C93.9863 18.3942 94.469 18.3398 94.59 18.3366C94.5911 18.378 94.1084 18.4324 94.1072 18.391ZM104.636 18.2745C104.633 18.1502 104.761 18.437 104.636 18.2745V18.2745ZM103.79 18.3386C103.668 18.3004 103.911 18.3354 103.79 18.3386V18.3386ZM98.0992 18.2839C98.2202 18.2807 97.7374 18.3351 97.6165 18.3383C97.4944 18.3002 97.9772 18.2458 98.0992 18.2839ZM97.2558 18.4309C97.3768 18.4277 97.015 18.4789 97.015 18.4789C96.894 18.4821 97.1348 18.4342 97.2558 18.4309ZM97.6265 18.7112C97.6265 18.7112 96.4179 18.7851 96.2958 18.7469C96.0528 18.712 98.8351 18.6374 97.6265 18.7112ZM96.6543 18.5714C96.7741 18.5268 98.1037 18.4497 98.7096 18.4749C100.525 18.4676 96.4134 18.6194 96.6543 18.5714ZM105.486 18.3761C105.123 18.3858 104.64 18.4402 104.399 18.4467C103.189 18.4791 102.341 18.4604 100.405 18.5123C100.405 18.5123 98.9538 18.5512 99.3145 18.4587C99.6752 18.3661 100.766 18.4197 101.129 18.41C101.371 18.4035 101.735 18.4352 101.856 18.432C102.098 18.4255 102.217 18.3394 102.096 18.3426C102.217 18.3394 102.218 18.3808 102.461 18.4157C102.945 18.4028 106.936 18.2543 106.818 18.3818C106.818 18.3818 106.091 18.3599 105.486 18.3761ZM107.422 18.3242C107.544 18.3624 107.301 18.3274 107.422 18.3242V18.3242ZM109.963 18.2975C110.083 18.2528 108.27 18.3429 108.028 18.3494C108.028 18.3494 108.146 18.2633 108.145 18.2219C108.023 18.1837 108.386 18.1739 108.75 18.2056C109.114 18.2373 109.357 18.2723 108.75 18.2056C108.629 18.2089 108.509 18.2536 108.509 18.2536C108.751 18.2471 110.081 18.17 109.963 18.2975ZM110.445 18.2017C110.325 18.2463 111.29 18.1375 111.293 18.2204C111.537 18.2968 110.084 18.2942 110.445 18.2017ZM109.953 17.9246C110.678 17.8637 111.043 17.9368 111.405 17.8857C111.405 17.8857 111.405 17.8857 111.526 17.8824C110.921 17.8987 110.437 17.9116 109.953 17.9246ZM135.063 15.3026C135.185 15.3408 134.941 15.2645 135.063 15.3026V15.3026ZM134.094 15.2872C134.337 15.3221 133.973 15.2904 134.094 15.2872V15.2872ZM131.98 17.7071C131.981 17.7485 131.859 17.7104 131.98 17.7071V17.7071ZM125.082 17.8092C124.961 17.8124 125.203 17.8059 125.082 17.8092V17.8092ZM119.273 17.882C119.394 17.8787 119.033 17.9299 119.033 17.9299C118.912 17.9332 119.152 17.8852 119.273 17.882ZM117.944 17.9591C118.065 17.9559 117.703 18.007 117.703 18.007C117.581 17.9688 117.822 17.9209 117.944 17.9591ZM111.895 18.1213C111.894 18.0799 111.894 18.0799 112.378 18.0669C112.136 18.0734 112.015 18.0766 111.895 18.1213C111.896 18.1627 112.26 18.1944 112.38 18.1498C111.78 18.3317 111.414 18.2171 111.895 18.1213ZM118.431 18.0704C117.463 18.0964 115.045 18.2027 114.561 18.2157C113.835 18.2351 111.657 18.2521 112.986 18.175C114.436 18.0532 115.044 18.1613 115.887 18.0143C116.735 18.033 116.005 17.8867 115.887 18.0143C116.132 18.0906 119.641 18.038 118.431 18.0704ZM119.035 18.0128C118.913 17.9746 118.793 18.0193 119.035 18.0128C119.282 18.2134 120.243 17.9389 119.035 18.0128ZM119.766 18.2005C119.645 18.2037 120.007 18.1525 120.007 18.1525C120.128 18.1493 119.766 18.2005 119.766 18.2005ZM120.004 18.0283C119.761 17.9933 121.695 17.9 121.816 17.8967C121.816 17.8967 122.542 17.8773 122.181 17.9699C122.061 18.0145 120.004 18.0283 120.004 18.0283ZM122.307 18.1323C122.307 18.1323 121.944 18.1421 121.823 18.1453C121.701 18.1071 123.637 18.0967 122.307 18.1323ZM123.395 18.1032C123.517 18.1413 123.274 18.1064 123.395 18.1032V18.1032ZM122.665 17.9569C122.059 17.9317 122.667 18.0398 122.665 17.9569C123.389 17.8546 124.965 17.9367 125.81 17.8726C126.052 17.8661 125.929 17.7864 126.05 17.7832C126.413 17.7735 126.173 17.8628 126.173 17.8628C126.416 17.8978 127.503 17.7857 127.504 17.8271C127.748 17.9035 123.15 17.9853 122.665 17.9569ZM125.574 18.0862C125.453 18.0894 125.09 18.0992 124.969 18.1024C124.847 18.0642 127.387 17.9961 125.574 18.0862ZM127.388 18.0375C127.388 18.0375 127.025 18.0473 126.904 18.0505C126.782 18.0123 128.718 17.9604 127.388 18.0375ZM128.598 18.0051C128.477 18.0083 128.114 18.0181 127.993 18.0213C127.75 17.9864 129.928 17.928 128.598 18.0051ZM128.11 17.8524C127.987 17.7727 128.713 17.7947 129.076 17.785C128.955 17.7882 129.56 17.772 129.56 17.772C129.561 17.8134 128.355 17.9702 128.11 17.8524ZM128.953 17.7054C128.832 17.7086 128.469 17.7183 128.348 17.7216C128.105 17.6866 130.767 17.6153 128.953 17.7054ZM130.045 17.8004C129.924 17.8037 130.407 17.7493 130.528 17.746C130.529 17.7875 130.046 17.8419 130.045 17.8004ZM131.74 17.7965C131.256 17.8094 130.894 17.8606 130.892 17.7777C130.89 17.6949 133.917 17.7381 131.74 17.7965ZM132.4 15.3326C132.278 15.2944 132.882 15.2367 133.004 15.2749C133.125 15.2717 132.521 15.3293 132.4 15.3326ZM132.828 17.7258C132.949 17.7226 132.705 17.6877 132.828 17.7258V17.7258ZM133.19 17.7161C133.069 17.7194 133.552 17.6649 133.673 17.6617C133.674 17.7031 133.192 17.7575 133.19 17.7161ZM133.68 17.9103C133.68 17.9103 134.284 17.8526 134.405 17.8494C134.405 17.8494 133.923 17.9452 133.68 17.9103ZM134.642 17.6772C134.519 17.5976 134.038 17.7348 134.642 17.6772C135.247 17.661 135.609 17.6098 135.852 17.6447C136.338 17.7146 134.643 17.7186 134.642 17.6772ZM137.305 17.6473C137.184 17.6505 137.545 17.5993 137.545 17.5993C137.667 17.6375 137.306 17.6887 137.305 17.6473ZM138.029 17.5864C137.907 17.5482 138.755 17.5669 138.755 17.5669C138.756 17.6083 138.152 17.666 138.029 17.5864ZM139.362 17.6335C139.362 17.6335 139.966 17.5759 140.087 17.5726C140.087 17.5726 139.727 17.7067 139.362 17.6335ZM140.33 17.6076C140.209 17.6108 140.692 17.5564 140.813 17.5532L140.33 17.6076ZM141.056 17.5881C140.935 17.5914 141.538 17.5337 141.659 17.5305C141.661 17.5719 141.178 17.6263 141.056 17.5881ZM142.507 17.5492C142.386 17.5524 142.869 17.498 142.99 17.4948C142.991 17.5362 142.629 17.5874 142.507 17.5492ZM143.466 17.1918C143.224 17.1983 142.861 17.208 142.619 17.2145L142.498 17.2178L143.707 17.1439C143.707 17.1439 143.587 17.1886 143.466 17.1918ZM144.202 17.5452C144.081 17.5485 144.564 17.4941 144.685 17.4908L144.202 17.5452ZM145.654 17.5063C145.654 17.5063 146.257 17.4486 146.378 17.4454C146.378 17.4454 146.019 17.5794 145.654 17.5063ZM147.59 17.4958C147.469 17.4991 148.073 17.4414 148.194 17.4382C148.315 17.4349 147.711 17.4926 147.59 17.4958ZM151.226 17.6471C151.105 17.6503 151.709 17.5927 151.83 17.5894C151.951 17.5862 151.347 17.6438 151.226 17.6471ZM157.819 15.2314C157.697 15.1932 158.301 15.1356 158.423 15.1738C158.545 15.2119 157.941 15.2696 157.819 15.2314ZM174.525 15.2395C174.283 15.246 174.162 15.2492 173.921 15.2557C174.04 15.211 174.644 15.1534 174.766 15.1916C174.887 15.1883 174.766 15.1916 174.525 15.2395ZM178.034 15.1454C177.911 15.1072 178.515 15.0496 178.637 15.0878C178.759 15.126 178.156 15.1836 178.034 15.1454Z" fill="#FF508B"/>
<path fill-rule="evenodd" clip-rule="evenodd" d="M48.9322 17.6122C49.0532 17.609 49.0532 17.609 48.9322 17.6122C48.8102 17.5741 48.8102 17.5741 48.9322 17.6122Z" fill="#FF508B"/>
<path fill-rule="evenodd" clip-rule="evenodd" d="M181.643 14.3024C181.764 14.2991 181.883 14.2544 182.004 14.2512C182.125 14.248 182.124 14.2065 182.124 14.2065C182.002 14.1683 180.674 14.2869 180.674 14.2869C180.918 14.3633 181.28 14.3121 181.643 14.3024Z" fill="#FF508B"/>
<path fill-rule="evenodd" clip-rule="evenodd" d="M179.221 14.2844C179.099 14.2462 177.89 14.3201 178.012 14.3582C178.255 14.3932 179.343 14.3226 179.221 14.2844Z" fill="#FF508B"/>
<path fill-rule="evenodd" clip-rule="evenodd" d="M175.714 14.4199C178.376 14.3899 174.501 14.328 174.867 14.4426C174.867 14.4426 175.593 14.4231 175.714 14.4199Z" fill="#FF508B"/>
<path fill-rule="evenodd" clip-rule="evenodd" d="M172.569 14.5042C175.231 14.4743 171.356 14.4124 171.722 14.5269C171.722 14.5269 172.448 14.5075 172.569 14.5042Z" fill="#FF508B"/>
<path fill-rule="evenodd" clip-rule="evenodd" d="M169.061 14.5983C171.843 14.5237 167.606 14.5129 167.85 14.5893C167.972 14.6275 168.819 14.6048 169.061 14.5983Z" fill="#FF508B"/>
<path fill-rule="evenodd" clip-rule="evenodd" d="M175.96 14.5791C176.082 14.6173 177.291 14.5434 177.169 14.5052C176.925 14.4289 175.838 14.5409 175.96 14.5791Z" fill="#FF508B"/>
<path fill-rule="evenodd" clip-rule="evenodd" d="M115.931 15.1108C116.047 14.9419 117.142 15.1613 115.931 15.1108V15.1108Z" fill="#FF508B"/>
<path fill-rule="evenodd" clip-rule="evenodd" d="M120.288 15.0769C123.554 14.9893 116.291 15.0182 116.778 15.1296C117.021 15.1645 120.167 15.0802 120.288 15.0769Z" fill="#FF508B"/>
<path fill-rule="evenodd" clip-rule="evenodd" d="M174.752 14.653C176.564 14.5215 167.969 14.5032 173.176 14.5709C172.328 14.5521 170.996 14.5464 170.152 14.652C169.307 14.7575 174.389 14.6627 174.752 14.653Z" fill="#FF508B"/>
<path fill-rule="evenodd" clip-rule="evenodd" d="M181.167 14.6054C181.289 14.6435 182.135 14.6208 182.377 14.6143C185.766 14.565 180.801 14.5322 181.167 14.6054Z" fill="#FF508B"/>
<path fill-rule="evenodd" clip-rule="evenodd" d="M178.263 14.6832C178.385 14.7214 179.232 14.6987 179.474 14.6922C182.862 14.6428 177.898 14.6101 178.263 14.6832Z" fill="#FF508B"/>
<path fill-rule="evenodd" clip-rule="evenodd" d="M176.453 14.8976C176.574 14.8943 177.179 14.8781 177.057 14.8399C176.935 14.8017 176.331 14.8594 176.453 14.8976Z" fill="#FF508B"/>
<path fill-rule="evenodd" clip-rule="evenodd" d="M172.581 14.96C172.703 14.9981 173.55 14.9754 173.792 14.969C177.301 14.9163 172.337 14.8836 172.581 14.96Z" fill="#FF508B"/>
<path fill-rule="evenodd" clip-rule="evenodd" d="M168.831 15.0605C168.953 15.0987 169.8 15.076 170.042 15.0695C172.703 14.9981 168.587 14.9841 168.831 15.0605Z" fill="#FF508B"/>
<path fill-rule="evenodd" clip-rule="evenodd" d="M185.898 14.976C188.556 14.7804 188.684 15.0671 185.898 14.976V14.976Z" fill="#FF508B"/>
<path fill-rule="evenodd" clip-rule="evenodd" d="M164.838 15.1261C164.839 15.1676 165.807 15.1416 165.928 15.1384C169.437 15.0857 164.473 15.053 164.838 15.1261Z" fill="#FF508B"/>
<path fill-rule="evenodd" clip-rule="evenodd" d="M50.6269 17.6083C50.5115 17.8187 49.1731 17.5643 50.6269 17.6083V17.6083Z" fill="#FF508B"/>
<path d="M5.44751 14.7236C8.51677 14.7236 10.7266 13.1962 10.7266 10.5896C10.7266 5.15223 2.56241 7.45342 2.56241 3.99145C2.56241 2.78994 3.60596 2.01609 5.32474 2.01609C7.00525 2.01609 8.12592 2.889 8.34814 4.24462C8.36615 4.3545 8.45845 4.43947 8.56979 4.43947H10.208C10.3335 4.43947 10.4331 4.33286 10.4188 4.20818C10.1353 1.73326 8.1633 0.142552 5.32474 0.142552C2.43964 0.142552 0.434389 1.71062 0.434389 3.99145C0.434389 9.2455 8.5577 7.18868 8.5577 10.6099C8.5577 12.1576 7.24815 12.85 5.44751 12.85C3.49529 12.85 2.30323 11.753 2.07279 10.033C2.05791 9.92192 1.965 9.83608 1.85297 9.83608H0.212916C0.0887177 9.83608 -0.0103249 9.94083 0.000863119 10.0645C0.256275 12.8883 2.29869 14.7236 5.44751 14.7236Z" fill="black"/>
<path d="M14.0703 1.57426C13.9305 1.6138 13.8341 1.74133 13.8341 1.88653V4.29692L11.9429 4.29692C11.8234 4.29692 11.7265 4.39379 11.7265 4.51328L11.7265 5.79118C11.7265 5.91067 11.8234 6.00754 11.9429 6.00754L13.8341 6.00754V11.2005C13.8341 13.298 15.1641 14.5607 17.2512 14.5607H18.6513C18.7708 14.5607 18.8677 14.4638 18.8677 14.3443V13.0664C18.8677 12.9469 18.7708 12.85 18.6513 12.85H17.4149C16.4123 12.85 15.8189 12.2391 15.8189 11.1394V6.00754H18.6513C18.7708 6.00754 18.8677 5.91067 18.8677 5.79118V4.51328C18.8677 4.39379 18.7708 4.29692 18.6513 4.29692H15.8189V1.22237C15.8189 1.15061 15.7503 1.09873 15.6813 1.11828L14.0703 1.57426Z" fill="black"/>
<path d="M24.3119 4.134C21.9719 4.134 20.1798 5.52585 19.8985 7.42381C19.8799 7.54884 19.98 7.65707 20.1064 7.65707H21.5094C21.6239 7.65707 21.7171 7.56734 21.7379 7.45471C21.9133 6.50476 22.9122 5.72244 24.2506 5.72244C25.8466 5.72244 26.7469 6.57775 26.7469 7.81999C26.7469 8.18655 26.5218 8.43092 26.0512 8.43092H23.9027C21.4678 8.43092 19.8922 9.65279 19.8922 11.6282C19.8922 13.461 21.2836 14.7236 23.3912 14.7236C24.9463 14.7236 26.2558 13.9904 26.7469 12.8908V14.3443C26.7469 14.4638 26.8438 14.5607 26.9633 14.5607L28.5153 14.5607C28.6348 14.5607 28.7317 14.4638 28.7317 14.3443L28.7317 7.94217C28.7317 5.66134 26.972 4.134 24.3119 4.134ZM23.7799 13.1555C22.6341 13.1555 21.8565 12.5242 21.8565 11.5874C21.8565 10.5081 22.7364 9.81571 24.0869 9.81571H26.7469V10.0601C26.7469 11.954 25.6624 13.1555 23.7799 13.1555Z" fill="black"/>
<path d="M37.958 1.57426C37.8183 1.6138 37.7219 1.74133 37.7219 1.88653V11.2005C37.7219 13.298 39.0519 14.5607 41.139 14.5607H42.5391C42.6586 14.5607 42.7555 14.4638 42.7555 14.3443V13.0664C42.7555 12.9469 42.6586 12.85 42.5391 12.85H41.3027C40.3001 12.85 39.7067 12.2391 39.7067 11.1394V6.00754L42.5391 6.00754C42.6586 6.00754 42.7555 5.91067 42.7555 5.79118V4.51328C42.7555 4.39379 42.6586 4.29692 42.5391 4.29692L39.7067 4.29692V1.22237C39.7067 1.15061 39.6381 1.09873 39.569 1.11828L37.958 1.57426ZM36.5848 6.00754C36.7042 6.00754 36.8011 5.91067 36.8011 5.79118V4.51328C36.8011 4.39379 36.7042 4.29692 36.5848 4.29692L35.7576 4.29692C34.3048 4.29692 33.4863 4.90786 33.0157 6.27228V4.51328C33.0157 4.39379 32.9188 4.29692 32.7993 4.29692H31.2473C31.1278 4.29692 31.0309 4.39379 31.0309 4.51328L31.0309 14.3443C31.0309 14.4638 31.1278 14.5607 31.2473 14.5607H32.7993C32.9188 14.5607 33.0157 14.4638 33.0157 14.3443V9.91753C33.0157 7.67743 33.6295 6.00754 35.512 6.00754L36.5848 6.00754Z" fill="black"/>
<path d="M49.3589 14.3443C49.3589 14.4638 49.4557 14.5607 49.5752 14.5607L58.5549 14.5607C58.6744 14.5607 58.7713 14.4638 58.7713 14.3443V12.9035C58.7713 12.784 58.6744 12.6871 58.5549 12.6871H51.4869V8.14582H56.9793C57.0988 8.14582 57.1957 8.04895 57.1957 7.92946V6.48864C57.1957 6.36915 57.0988 6.27228 56.9793 6.27228L51.4869 6.27228V2.17901L58.3298 2.17901C58.4493 2.17901 58.5462 2.08214 58.5462 1.96265V0.521826C58.5462 0.402334 58.4493 0.305468 58.3298 0.305468L49.5752 0.305468C49.4557 0.305468 49.3589 0.402335 49.3589 0.521826V14.3443Z" fill="black"/>
<path d="M60.8643 14.3443C60.8643 14.4638 60.9611 14.5607 61.0806 14.5607H62.6327C62.7522 14.5607 62.8491 14.4638 62.8491 14.3443V8.59384C62.8491 6.96467 63.7903 5.86499 65.3659 5.86499C66.7163 5.86499 67.5348 6.96467 67.5348 8.59384V14.3443C67.5348 14.4638 67.6317 14.5607 67.7512 14.5607H69.3032C69.4227 14.5607 69.5196 14.4638 69.5196 14.3443V8.59384C69.5196 6.96467 70.4608 5.86499 72.0364 5.86499C73.4073 5.86499 74.2258 6.96467 74.2258 8.59384V14.3443C74.2258 14.4638 74.3226 14.5607 74.4421 14.5607H75.9942C76.1137 14.5607 76.2106 14.4638 76.2106 14.3443V8.044C76.2106 5.66134 74.8192 4.134 72.5888 4.134C70.9928 4.134 69.6424 5.07077 69.2331 6.23155C68.8239 4.88749 67.5757 4.134 65.8979 4.134C64.3837 4.134 63.2788 4.96895 62.8491 6.12973V4.51328C62.8491 4.39379 62.7522 4.29692 62.6327 4.29692H61.0806C60.9611 4.29692 60.8643 4.39379 60.8643 4.51328V14.3443Z" fill="black"/>
<path d="M78.8506 18.4987C78.8506 18.6182 78.9475 18.715 79.067 18.715H80.619C80.7385 18.715 80.8354 18.6182 80.8354 18.4987V13.1148C81.4288 14.0923 82.6565 14.7236 84.0274 14.7236C87.1581 14.7236 89.0201 12.4835 89.0201 9.42878C89.0201 6.3741 87.2399 4.134 84.1297 4.134C82.6974 4.134 81.4492 4.80603 80.8354 5.82426V4.51328C80.8354 4.39379 80.7385 4.29692 80.619 4.29692L79.067 4.29692C78.9475 4.29692 78.8506 4.39379 78.8506 4.51328V18.4987ZM83.8433 12.9926C81.9199 12.9926 80.6717 11.5671 80.6717 9.42878C80.6717 7.29051 81.9199 5.86499 83.8433 5.86499C85.7462 5.86499 87.0148 7.29051 87.0148 9.42878C87.0148 11.5671 85.7462 12.9926 83.8433 12.9926Z" fill="black"/>
<path d="M96.7159 6.00754C96.8354 6.00754 96.9322 5.91067 96.9322 5.79118V4.51328C96.9322 4.39379 96.8354 4.29692 96.7159 4.29692L95.6841 4.29692C94.2313 4.29692 93.4128 4.90786 92.9422 6.27228V4.51328C92.9422 4.39379 92.8453 4.29692 92.7258 4.29692H91.1738C91.0543 4.29692 90.9574 4.39379 90.9574 4.51328V14.3443C90.9574 14.4638 91.0543 14.5607 91.1738 14.5607H92.7258C92.8453 14.5607 92.9422 14.4638 92.9422 14.3443V9.91753C92.9422 7.67743 93.556 6.00754 95.4385 6.00754L96.7159 6.00754Z" fill="black"/>
<path d="M105.667 11.2209C105.567 11.2209 105.481 11.2893 105.451 11.3842C105.115 12.4426 104.156 13.0333 102.714 13.0333C100.914 13.0333 99.6452 11.7096 99.4815 9.77498L107.359 9.77498C107.38 9.5917 107.4 9.26587 107.4 9.00113C107.4 6.39447 105.702 4.134 102.51 4.134C99.3382 4.134 97.5376 6.49629 97.5376 9.36769C97.5376 12.2187 99.5224 14.7236 102.714 14.7236C105.15 14.7236 106.963 13.448 107.43 11.4731C107.461 11.3424 107.359 11.2209 107.225 11.2209H105.667ZM102.51 5.72244C104.208 5.72244 105.272 6.76103 105.395 8.3291L99.5429 8.3291C99.8498 6.61848 100.893 5.72244 102.51 5.72244Z" fill="black"/>
<path d="M116.957 11.2209C116.857 11.2209 116.771 11.2893 116.741 11.3842C116.405 12.4426 115.446 13.0333 114.004 13.0333C112.204 13.0333 110.935 11.7096 110.771 9.77498L118.552 9.77498C118.607 9.77498 118.654 9.73358 118.659 9.6787C118.676 9.4907 118.69 9.22422 118.69 9.00113C118.69 6.39447 116.992 4.134 113.8 4.134C110.628 4.134 108.828 6.49629 108.828 9.36769C108.828 12.2187 110.812 14.7236 114.004 14.7236C116.439 14.7236 118.253 13.448 118.72 11.4731C118.751 11.3424 118.649 11.2209 118.515 11.2209H116.957ZM113.8 5.72244C115.498 5.72244 116.562 6.76103 116.685 8.3291L110.833 8.3291C111.14 6.61848 112.183 5.72244 113.8 5.72244Z" fill="black"/>
<path d="M120.711 14.3443C120.711 14.4638 120.808 14.5607 120.927 14.5607H122.479C122.599 14.5607 122.696 14.4638 122.696 14.3443V9.00113C122.696 7.20905 123.841 5.90572 125.458 5.90572C126.911 5.90572 127.872 7.0054 127.872 8.63457V14.3443C127.872 14.4638 127.969 14.5607 128.089 14.5607H129.641C129.76 14.5607 129.857 14.4638 129.857 14.3443V8.24764C129.857 5.8039 128.343 4.134 126.01 4.134C124.476 4.134 123.248 4.8264 122.696 6.10936V4.51328C122.696 4.39379 122.599 4.29692 122.479 4.29692H120.927C120.808 4.29692 120.711 4.39379 120.711 4.51328V14.3443Z" fill="black"/>
<path d="M136.759 14.7236C138.13 14.7236 139.398 14.0515 140.012 13.0333V14.3443C140.012 14.4638 140.109 14.5607 140.229 14.5607H141.781C141.9 14.5607 141.997 14.4638 141.997 14.3443V0.216359C141.997 0.0968672 141.9 0 141.781 0L140.229 0C140.109 0 140.012 0.096867 140.012 0.216359V5.8039C139.398 4.80603 138.15 4.134 136.738 4.134C133.587 4.134 131.807 6.3741 131.807 9.42878C131.807 12.4835 133.587 14.7236 136.759 14.7236ZM136.984 12.9926C135.081 12.9926 133.833 11.5671 133.833 9.42878C133.833 7.29051 135.081 5.86499 136.984 5.86499C138.907 5.86499 140.155 7.29051 140.155 9.42878C140.155 11.5671 138.907 12.9926 136.984 12.9926Z" fill="black"/>
<path d="M152.145 11.2209C152.046 11.2209 151.96 11.2893 151.93 11.3842C151.594 12.4426 150.635 13.0333 149.193 13.0333C147.392 13.0333 146.124 11.7096 145.96 9.77498L153.741 9.77498C153.796 9.77498 153.842 9.73358 153.847 9.6787C153.864 9.4907 153.879 9.22422 153.879 9.00113C153.879 6.39447 152.18 4.134 148.988 4.134C145.817 4.134 144.016 6.49629 144.016 9.36769C144.016 12.2187 146.001 14.7236 149.193 14.7236C151.628 14.7236 153.441 13.448 153.909 11.4731C153.94 11.3424 153.838 11.2209 153.703 11.2209H152.145ZM148.988 5.72244C150.687 5.72244 151.751 6.76103 151.873 8.3291L146.021 8.3291C146.328 6.61848 147.372 5.72244 148.988 5.72244Z" fill="black"/>
<path d="M160.258 14.7236C161.629 14.7236 162.897 14.0515 163.511 13.0333V14.3443C163.511 14.4638 163.608 14.5607 163.728 14.5607H165.28C165.399 14.5607 165.496 14.4638 165.496 14.3443V0.216359C165.496 0.0968672 165.399 0 165.28 0L163.728 0C163.608 0 163.511 0.096867 163.511 0.216359V5.8039C162.897 4.80603 161.649 4.134 160.237 4.134C157.086 4.134 155.306 6.3741 155.306 9.42878C155.306 12.4835 157.086 14.7236 160.258 14.7236ZM160.483 12.9926C158.58 12.9926 157.332 11.5671 157.332 9.42878C157.332 7.29051 158.58 5.86499 160.483 5.86499C162.406 5.86499 163.654 7.29051 163.654 9.42878C163.654 11.5671 162.406 12.9926 160.483 12.9926Z" fill="black"/>
<path d="M172.835 14.7236C175.925 14.7236 178.135 12.5038 178.135 9.42878C178.135 6.35374 175.925 4.134 172.835 4.134C169.745 4.134 167.515 6.35374 167.515 9.42878C167.515 12.5038 169.745 14.7236 172.835 14.7236ZM172.835 12.9926C170.871 12.9926 169.541 11.5263 169.541 9.42878C169.541 7.33124 170.871 5.86499 172.835 5.86499C174.779 5.86499 176.109 7.33124 176.109 9.42878C176.109 11.5263 174.779 12.9926 172.835 12.9926Z" fill="black"/>
<path d="M185.836 6.00754C185.956 6.00754 186.053 5.91067 186.053 5.79118V4.51328C186.053 4.39379 185.956 4.29692 185.836 4.29692L184.804 4.29692C183.352 4.29692 182.533 4.90786 182.063 6.27228V4.51328C182.063 4.39379 181.966 4.29692 181.846 4.29692H180.294C180.175 4.29692 180.078 4.39379 180.078 4.51328V14.3443C180.078 14.4638 180.175 14.5607 180.294 14.5607H181.846C181.966 14.5607 182.063 14.4638 182.063 14.3443V9.91753C182.063 7.67743 182.676 6.00754 184.559 6.00754L185.836 6.00754Z" fill="black"/>
</svg>
